# xmcd
#
# Track frame offsets:
#       151
#       13098
#       26159
#       40208
#       53588
#       68137
#       82249
#       97132
#       112535
#       125676
#       139183
#       152752
#       179125
#       193804
#       207151
#       221247
#       233216
#       247090
#       259962
#       273613
#       286780
#
# Disc length: 3992 seconds
#
# Revision: 1
# Processed by: cddbd v1.5.2PL0 Copyright (c) Steve Scherf et al.
# Submitted via: MusiCat 1.1
#
DISCID=490f9615
DTITLE=Lil Johnson - Lil Johnson 1935 - 1937
DYEAR=1900
DGENRE=
TTITLE0=Shake Man Blues
TTITLE1=Evil Man Blues
TTITLE2=Keep On Knocking
TTITLE3=I Lost My Baby
TTITLE4=If You Can Dish It
TTITLE5=I'm Bettin' On You
TTITLE6=Press My Button
TTITLE7=Take It Easy Greasy
TTITLE8=You Can't Bet On Love
TTITLE9=Get 'Em From The Peanut Man
TTITLE10=Honey You're So Good To Me
TTITLE11=Scuffling Woman Blues/Crazy About My Rider
TTITLE12=I'll Take You To The Cleaners
TTITLE13=Meat Balls
TTITLE14=My Baby
TTITLE15=You Stole My Cherry
TTITLE16=Stavin' Chain
TTITLE17=Take Your Hand Off It
TTITLE18=Love Thief
TTITLE19=Snake In The Grass
TTITLE20=You Can't Throw Me Down
EXTD=RST\nBD 2083\nCDR copy from vinyl\n
EXTT0=
EXTT1=
EXTT2=
EXTT3=
EXTT4=
EXTT5=
EXTT6=
EXTT7=
EXTT8=
EXTT9=
EXTT10=
EXTT11=
EXTT12=
EXTT13=
EXTT14=
EXTT15=
EXTT16=
EXTT17=
EXTT18=
EXTT19=
EXTT20=
PLAYORDER=
